# xmcd
#
# Track frame offsets: 
#        150
#        16625
#        45172
#        76635
#        98195
#        117092
#        149185
#        176000
#        196322
#        221282
#        240015
#        262480
#        296495
#
# Disc length: 4205 seconds
#
# Revision: 0
# Processed by: cddbd v1.5.1PL0 Copyright (c) Steve Scherf et al.
# Submitted via: ExactAudioCopy v0.95a5
#
DISCID=a9106b0d
DTITLE=Various Artist - Kansas City Blues and Jazz Festival - 1996
DYEAR=1996
DGENRE=Blues
TTITLE0=Turn It On, Turn It Up - Roomful Of Blues
TTITLE1=Nightcrawler - Bob James Trio
TTITLE2=Gathering Of The Tribes - Craig Chaquico
TTITLE3=Taxicab Driver - Mem Shannon
TTITLE4=Bluesilian - Tania Maria
TTITLE5=Eisenbleu - Steve Million
TTITLE6=Nothin' But The Devil - Paul Rishell and Annie Raines
TTITLE7=Cruisin' - Pat Morrissey
TTITLE8=Maxed Out - Max Groove
TTITLE9=Love Buzzards - Back Alley Band
TTITLE10=Your Smile Inside My Nights - Pascal Baker Group
TTITLE11=Samba 88 - Musa Nova
TTITLE12=The Blues Is Alright - Little Milton
EXTD=
EXTT0=
EXTT1=
EXTT2=
EXTT3=
EXTT4=
EXTT5=
EXTT6=
EXTT7=
EXTT8=
EXTT9=
EXTT10=
EXTT11=
EXTT12=
PLAYORDER=
